<?xml version="1.0" standalone="no"?>
<svg viewBox="0 0 200 200" xmlns="http://www.w3.org/2000/svg">
  <path fill="#8A3FFC" d="M46.6,-73.3C60.3,-63.7,71.3,-50.6,77,-35.8C82.8,-21,83.3,-4.5,81.5,12.1C79.8,28.7,75.6,45.3,65.7,57.3C55.9,69.2,40.2,76.4,24.3,79.8C8.3,83.2,-7.9,82.7,-23.1,78.4C-38.3,74.1,-52.5,66,-63.9,54.5C-75.2,43,-83.7,28.1,-84.6,13C-85.5,-2.2,-78.9,-17.6,-71.4,-32C-63.9,-46.5,-55.5,-60,-43.5,-70.2C-31.5,-80.5,-15.7,-87.6,0.4,-88.1C16.5,-88.7,32.9,-82.8,46.6,-73.3Z" transform="translate(100 100)" />
</svg>
