<?xml version="1.0" standalone="no"?>
<svg viewBox="0 0 200 200" xmlns="http://www.w3.org/2000/svg">
  <path fill="#8A3FFC" d="M21.4,-24.5C35.1,-24.6,58.5,-31,62.1,-27.2C65.7,-23.3,49.4,-9.3,44,4C38.5,17.3,43.8,29.9,39.9,34.8C36,39.8,23.1,37.1,13,36.3C3,35.5,-4,36.7,-13.7,37.9C-23.4,39.1,-35.8,40.4,-41.8,35.2C-47.7,30.1,-47.3,18.4,-44.1,9.3C-40.9,0.1,-34.9,-6.6,-33.8,-18.1C-32.7,-29.7,-36.5,-46.2,-31.7,-50.1C-26.9,-54.1,-13.4,-45.5,-4.8,-38.1C3.9,-30.6,7.8,-24.4,21.4,-24.5Z" transform="translate(100 100)" />
</svg>
