<svg id="Layer_1" data-name="Layer 1" xmlns="http://www.w3.org/2000/svg" viewBox="0 0 866.38 749.11"><defs><style>.cls-1{fill:#8a3ffc;}</style>
</defs><path class="cls-1" d="M1044.94,204.05c20.35,14.27,36.7,33.73,45.16,55.72,8.62,22,9.37,46.51,6.69,71.17-2.53,24.66-8.77,49.33-23.48,67.16-14.56,17.68-37.88,28.38-61.51,33.43a146.42,146.42,0,0,1-70.43-2.08,138.42,138.42,0,0,1-60.62-35.51C864,376.85,851.33,354.71,850,332.28c-1.34-22.59,8.47-45.47,19.61-66.86,11.14-21.55,23.62-41.61,41.45-56.76,17.83-15.31,41.31-25.85,65.23-26.6S1024.58,189.94,1044.94,204.05Z" transform="translate(-564.6 -182)"/><path id="right" class="cls-1" d="M1377.76,419.49c20.35,14.27,36.7,33.73,45.17,55.72s9.36,46.51,6.68,71.17c-2.52,24.67-8.76,49.33-23.47,67.16s-37.89,28.38-61.52,33.43a146.38,146.38,0,0,1-70.42-2.08,138.31,138.31,0,0,1-60.62-35.51c-16.79-17.09-29.42-39.22-30.76-61.66s8.47-45.47,19.61-66.86c11.15-21.55,23.63-41.6,41.46-56.76s41.3-25.85,65.22-26.6S1357.4,405.38,1377.76,419.49Z" transform="translate(-564.6 -182)"/><path id="bottom" class="cls-1" d="M1089.51,700.31c20.36,14.27,36.7,33.73,45.17,55.72s9.36,46.51,6.69,71.17-8.77,49.33-23.48,67.16c-14.56,17.68-37.89,28.38-61.51,33.43A146.41,146.41,0,0,1,986,925.71a138.36,138.36,0,0,1-60.62-35.51c-16.79-17.09-29.42-39.23-30.76-61.66-1.34-22.59,8.47-45.47,19.61-66.86,11.15-21.55,23.63-41.61,41.46-56.76s41.3-25.85,65.23-26.6S1069.15,686.2,1089.51,700.31Z" transform="translate(-564.6 -182)"/>
<path id="left" class="cls-1" d="M764,446c47.34-25.47-25.47,87-17,109s134.67-4.66,132,20-51.29,102.17-66,120c-14.56,17.68-49.38,20-73,25s-81.42,52.39-104,46-23.58-84.56-40.52-101.64-29.42-39.23-30.76-61.66c-1.34-22.59,8.47-45.47,19.61-66.87s23.63-41.6,41.46-56.75c17.83-15.31,41.3-25.86,65.23-26.6C714.94,451.59,730.34,391.53,764,446Z" transform="translate(-564.6 -182)"/>
</svg>